<svg width="800" height="300" xmlns="http://www.w3.org/2000/svg">

 <g>
  <title>Layer 1</title>
  <rect id="svg_5" height="20" width="37" y="271" x="727" stroke="#000" fill="#fff"/>
  <line stroke-linecap="undefined" stroke-linejoin="undefined" id="svg_6" y2="278" x2="721" y1="33" x1="43" stroke="#000" fill="none"/>
  <text style="cursor: move;" xml:space="preserve" text-anchor="start" font-family="Noto Sans JP" font-size="24" id="svg_7" y="27" x="53" stroke-width="0" stroke="#000" fill="#000000">导航点A</text>
  <text style="cursor: move;" xml:space="preserve" text-anchor="start" font-family="Noto Sans JP" font-size="24" id="svg_8" y="159" x="715" stroke-width="0" stroke="#000" fill="#000000">终点D</text>
  <path id="svg_21" d="m32.9943,98.71416c-0.9292,-1.68022 -2.06733,-3.0401 -3.20838,-3.99078c-1.33141,0.97508 -2.95301,1.56823 -4.72263,1.56823c-1.77075,0 -3.39469,-0.59491 -4.72437,-1.56823c-1.14105,0.95068 -2.27917,2.31056 -3.21187,3.99078c-2.16312,3.89906 -2.40223,7.89908 -0.53396,8.93683c0.83692,0.4672 1.71506,0.11841 2.62162,-0.75451c-0.15961,0.88509 -0.25422,1.84506 -0.25422,2.84971c0,4.46089 1.73304,8.07436 3.86947,8.07436c1.28672,0 1.92458,-1.3163 2.23042,-3.33083c0.30586,2.01453 0.94312,3.33083 2.22697,3.33083c2.1393,0 3.87234,-3.61347 3.87234,-8.07436c0,-1.00465 -0.09285,-1.96462 -0.25536,-2.84971c0.90946,0.87292 1.78584,1.22171 2.6245,0.75451c1.87119,-1.03775 1.62915,-5.03777 -0.53454,-8.93683zm-7.93275,-3.94374c3.59551,0 6.51022,-2.91531 6.51022,-6.51024s-2.9147,-6.51022 -6.51022,-6.51022c-3.59493,0 -6.51197,2.9147 -6.51197,6.51022s2.91703,6.51024 6.51197,6.51024zm4.44752,-13.36289c1.87872,0.69183 0.74811,-1.10333 0.74811,-2.32969s1.15962,-2.72609 -0.74811,-2.11609c-2.00235,0.64189 -3.62569,0.99478 -3.62569,2.22287s1.62335,1.48465 3.62569,2.2229zm-4.43533,-0.87348c1.1898,0 0.52525,-0.60245 0.52525,-1.34477c0,-0.74289 0.66629,-1.34361 -0.52525,-1.34361s-0.56879,0.60245 -0.56879,1.34361c0,0.74405 -0.62103,1.34477 0.56879,1.34477zm-4.46087,0.87348c2.00235,-0.73653 3.62568,-0.99538 3.62568,-2.2229s-1.62333,-1.58098 -3.62568,-2.22287c-1.90774,-0.61174 -0.7487,0.88856 -0.7487,2.11609s-1.13176,3.02035 0.7487,2.32969z" fill="#000"/>
  <path id="svg_23" d="m121.7322,135.12159c-0.04776,-0.05927 -0.10627,-0.10724 -0.16492,-0.14078c-0.06844,0.0344 -0.15179,0.05532 -0.24276,0.05532c-0.09102,0 -0.1745,-0.02099 -0.24285,-0.05532c-0.05865,0.03354 -0.11716,0.08151 -0.1651,0.14078c-0.11119,0.13754 -0.12348,0.27865 -0.02745,0.31525c0.04302,0.01648 0.08816,0.00418 0.13476,-0.02662c-0.0082,0.03122 -0.01307,0.06509 -0.01307,0.10053c0,0.15736 0.08908,0.28483 0.1989,0.28483c0.06614,0 0.09893,-0.04643 0.11465,-0.1175c0.01572,0.07106 0.04848,0.1175 0.11447,0.1175c0.10997,0 0.19905,-0.12747 0.19905,-0.28483c0,-0.03544 -0.00477,-0.0693 -0.01313,-0.10053c0.04675,0.03079 0.0918,0.0431 0.13491,0.02662c0.09618,-0.03661 0.08374,-0.17771 -0.02748,-0.31525zm-0.40777,-0.13912c0.18482,0 0.33465,-0.10284 0.33465,-0.22965s-0.14982,-0.22965 -0.33465,-0.22965c-0.18479,0 -0.33474,0.10282 -0.33474,0.22965s0.14994,0.22965 0.33474,0.22965zm0.22862,-0.47139c0.09657,0.0244 0.03846,-0.03892 0.03846,-0.08218s0.05961,-0.09616 -0.03846,-0.07465c-0.10293,0.02264 -0.18637,0.03509 -0.18637,0.07841s0.08345,0.05237 0.18637,0.07841zm-0.22799,-0.03081c0.06116,0 0.027,-0.02125 0.027,-0.04744c0,-0.02621 0.03425,-0.0474 -0.027,-0.0474s-0.02924,0.02125 -0.02924,0.0474c0,0.02625 -0.03192,0.04744 0.02924,0.04744zm-0.2293,0.03081c0.10293,-0.02598 0.18637,-0.03511 0.18637,-0.07841s-0.08344,-0.05577 -0.18637,-0.07841c-0.09806,-0.02158 -0.03849,0.03134 -0.03849,0.07465s-0.05818,0.10654 0.03849,0.08218z" fill="#000"/>
  <line id="svg_25" y2="313" x2="1104" y1="312" x1="1104" fill="none"/>
  <ellipse ry="17.5" rx="17.5" id="svg_27" cy="90.5" cx="126.5" fill="#000"/>
  <ellipse ry="17.5" rx="17.5" id="svg_29" cy="61.5" cx="215.5" fill="#000"/>
  <ellipse ry="17.5" rx="17.5" id="svg_30" cy="124.5" cx="175.5" fill="#000"/>
  <ellipse ry="17.5" rx="17.5" id="svg_31" cy="138.5" cx="110.5" fill="#000"/>
  <ellipse ry="17.5" rx="17.5" id="svg_32" cy="128.5" cx="238.5" fill="#000"/>
  <ellipse ry="17.5" rx="17.5" id="svg_33" cy="134.5" cx="427.5" fill="#000"/>
  <ellipse ry="17.5" rx="17.5" id="svg_34" cy="230.5" cx="525.5" fill="#000"/>
  <ellipse ry="17.5" rx="17.5" id="svg_35" cy="194.5" cx="330.5" fill="#000"/>
  <ellipse ry="17.5" rx="17.5" id="svg_36" cy="200.5" cx="153.5" fill="#000"/>
  <text style="cursor: move;" xml:space="preserve" text-anchor="start" font-family="Noto Sans JP" font-size="24" id="svg_37" y="104" x="36.45946" stroke-width="0" stroke="#000" fill="#000000">起点C</text>
  <line id="svg_38" y2="118" x2="435" y1="44" x1="513" stroke="#000" fill="none"/>
  <text xml:space="preserve" text-anchor="start" font-family="Noto Sans JP" font-size="24" id="svg_39" y="43" x="506" stroke-width="0" stroke="#000" fill="#000000">障碍物</text>
  <line id="svg_40" y2="31" x2="25" y1="76" x1="25" stroke="#37ff00" fill="none"/>
  <rect id="svg_42" height="25" width="47" y="11" x="0" stroke-width="0" stroke="#000" fill="#000000"/>
  <text xml:space="preserve" text-anchor="start" font-family="Noto Sans JP" font-size="24" id="svg_43" y="291" x="636" stroke-width="0" stroke="#000" fill="#000000">导航点B</text>
  <line id="svg_44" y2="188" x2="748" y1="269" x1="746" stroke="#00ff2a" fill="none"/>
  <rect id="svg_41" height="25" width="47" y="168" x="723" stroke-width="0" stroke="#000" fill="#000000"/>
 </g>
</svg>